<svg width="60" height="61" viewBox="0 0 60 61" fill="none" xmlns="http://www.w3.org/2000/svg">
<path d="M22.5007 35.9893H4.28641C3.10294 35.9893 2.14355 36.9486 2.14355 38.1321V56.3464C2.14355 57.5299 3.10294 58.4893 4.28641 58.4893H22.5007C23.6842 58.4893 24.6436 57.5299 24.6436 56.3464V38.1321C24.6436 36.9486 23.6842 35.9893 22.5007 35.9893Z" stroke="#BFF747" stroke-width="2" stroke-linecap="round" stroke-linejoin="round"/>
<path d="M55.7151 35.9893H37.5008C36.3173 35.9893 35.3579 36.9486 35.3579 38.1321V56.3464C35.3579 57.5299 36.3173 58.4893 37.5008 58.4893H55.7151C56.8985 58.4893 57.8579 57.5299 57.8579 56.3464V38.1321C57.8579 36.9486 56.8985 35.9893 55.7151 35.9893Z" stroke="#BFF747" stroke-width="2" stroke-linecap="round" stroke-linejoin="round"/>
<path d="M39.1291 2.77539H20.9148C19.7314 2.77539 18.772 3.73478 18.772 4.91825V23.1325C18.772 24.316 19.7314 25.2754 20.9148 25.2754H39.1291C40.3126 25.2754 41.272 24.316 41.272 23.1325V4.91825C41.272 3.73478 40.3126 2.77539 39.1291 2.77539Z" stroke="#BFF747" stroke-width="2" stroke-linecap="round" stroke-linejoin="round"/>
</svg>
